<svg width="48" height="48" viewBox="0 0 48 48" fill="none" xmlns="http://www.w3.org/2000/svg" class="-default" style="translate: none; rotate: none; scale: none; transform: translate(0px, 0px);"><path d="M16.9985 44.8L8 28.6795L9.79895 26.8892H13.4006L15.1996 28.6795V5.3903L16.9985 3.59998H20.397L22.3992 5.3903V14.3457H26.0008L27.7998 16.136V17.9263L29.5987 16.136H33.2004L34.9994 17.9263H38.601L40.4 19.7167V37.6312L34.9994 44.7962L17.4088 44.8H16.9985Z" fill="white"></path><path d="M16.9985 44.8L8 28.6795L9.79895 26.8892H13.4006L15.1996 28.6795V5.3903L16.9985 3.59998H20.397L22.3992 5.3903V14.3457H26.0008L27.7998 16.136V17.9263L29.5987 16.136H33.2004L34.9994 17.9263H38.601L40.4 19.7167V37.6312L34.9994 44.7962L17.4088 44.8H16.9985Z" stroke="black" stroke-width="2.5" stroke-miterlimit="10"></path><path d="M16.9985 44.8L8 28.6795L9.79895 26.8892H13.4006L15.1996 28.6795V5.3903L16.9985 3.59998H20.397L22.3992 5.3903V14.3457H26.0008L27.7998 16.136V17.9263L29.5987 16.136H33.2004L34.9994 17.9263H38.601L40.4 19.7167V37.6312L34.9994 44.7962L17.4088 44.8H16.9985Z" stroke="black" stroke-opacity="0.2" stroke-width="2.5" stroke-miterlimit="10"></path></svg>